<svg xmlns="http://www.w3.org/2000/svg" xmlns:xlink="http://www.w3.org/1999/xlink" width="581.4" height="294.3" viewBox="0 0 581.4 294.3">
  <defs>
    <rect id="rect-1" width="581.4" height="294.3" x="0" y="0"/>
    <mask id="mask-2" maskContentUnits="userSpaceOnUse" maskUnits="userSpaceOnUse">
      <rect width="581.4" height="294.3" x="0" y="0" fill="black"/>
      <use fill="white" xlink:href="#rect-1"/>
    </mask>
    <text id="text-12" font-size="0" style="white-space:pre" fill="inherit">
      <tspan x="127.857" y="286" font-family="Gill Sans MT Condensed" font-size="99.66" font-weight="400" style="white-space:pre;text-transform:uppercase" letter-spacing="4">Wide Bay</tspan>
    </text>
  </defs>
  <g>
    <use fill="none" xlink:href="#rect-1"/>
    <g mask="url(#mask-2)">
      <path fill="rgb(255,255,255)" fill-rule="evenodd" d="M0 0h581.4v295H0V0z"/>
      <path fill="rgb(69,65,66)" fill-rule="evenodd" d="M502.30000305 210h-64.40000152v-97.59997559h64.40000152V210zm-36.70000458-79.90002441h-11.19999694v62.09997558h10.80000305V170.5999756h2.09999847l7 21.59997558h11.5L477.5 167c4.10000229-3.09997559 7.30000305-8.20007324 7.30000305-16.30004883v-.79992676c0-13.90002441-8.10000229-19.80004882-19.20000458-19.80004882z"/>
      <path fill="rgb(69,65,66)" fill-rule="evenodd" d="M7.2999878 210h64.39999389v-97.59997559H7.29998779V210zm502.3000183 0H574v-97.59997559h-64.3999939V210zm33.6999817-80.30004883c-8.5999756 0-15.0999756 6.30004883-15.0999756 16.19995117h.20001221v.30004883c0 7.59997559 3 11.59997559 10.39996338 19.90002442 5.10003662 5.79992675 6 8 6 10.79992675v.20007325c0 3.79992675-2.7000122 5.29992675-5.79998779 5.29992675-3 0-6-1.29992675-9.7999878-3.5v11.30004883c3.0999756 1.5 6.70001221 2.59997559 11 2.59997559 8.5 0 15.2999878-6.40002442 15.2999878-16.19995117v-.20007325c0-7.09997558-1.90002441-11-10.40002441-20.79992675-5.09997559-5.90002442-6-7-6-9.90002442V145.5c0-3.40002441 2.60003662-5.30004883 5.60003662-5.30004883C547.5 140.19995117 549.5 141 552.9000244 143v-11.30004883c-2.7000122-1.40002441-5.30004882-2-9.60003662-2zm-508.89996339.40002442h-9.7000122v62.09997558H35.5v-19.5h.1000061c11-.79992676 18.80001831-7.5 18.80001831-21.5V151c0-14.5-8.2000122-20.90002441-20-20.90002441zm439.49996949 20.70007324v-.69995117c0-7.80004883-3.6999817-9.80004883-8.3999939-9.80004883h-.2999878v20.59997558h.5c4.6999817-.09997558 8.1999817-2.79992675 8.1999817-10.09997558z"/>
      <path fill="rgb(69,65,66)" fill-rule="evenodd" d="M79.1000061 210H143.5v-97.59997559H79.1000061V210zM117 130h-11.5l-11.7999878 62.30004883h10.5l2-12.30004883H116l2 12.30004883h10.80001831L117 130zm-73.3999939 21.59997559v-.19995118c0-7.90002441-3-11.30004882-7.7000122-11.30004882H35.5v22.5h.1000061c4.5-.19995118 8-3.5 8-11z"/>
      <path fill="rgb(69,65,66)" fill-rule="evenodd" d="M186.90002441 150.10009766v.69995117c0 7.30004883-3.5 10-8.2000122 10.09997558h-.5v-20.59997558H178.5c4.7000122 0 8.40002441 2 8.40002441 9.80004883zm-79.10003662 20.09985351l3.2999878-20.5 3.3000183 20.5h-6.6000061z"/>
      <path fill="rgb(69,65,66)" fill-rule="evenodd" d="M150.8999939 210h64.3999939v-97.59997559h-64.3999939V210zM287 210h-64.3999939v-97.59997559H287V210zm71.7999878 0h-64.3999939v-97.59997559h64.3999939V210zM430.5 210h-64.3999939v-97.59997559H430.5V210zm-263.2000122-79.90002441h11.29998779c11.1000061 0 19.2000122 5.90002441 19.2000122 19.80004882v.79992676c0 8.09997559-3.2000122 13.20007324-7.29998779 16.30004883l8.2999878 25.19995117h-11.5l-7-21.59997558h-2.20001221v21.59997558h-10.7999878V130.0999756zm100.6000061 0v10.30004882h-7.6000061v51.79992676H249.5v-51.79992676h-7.6000061V130.0999756h26zm42.90000915 0h10.1000061L331.80000306 161.5v-31.40002441h10.6000061v62.09997558h-9.6000061l-11.3999939-32.90002441v32.90002441h-10.6000061V130.0999756zm99.30000305 0v10.30004882h-12.90000915v15.39990235h11.40000915v10.30004883h-11.40000915v15.80004882h13.19999695v10.29992676h-24V130.0999756h23.7000122z"/>
      <g>
        <path fill="rgb(213,0,50)" fill-rule="evenodd" d="M7.2999878 7.40002441h64.39999389V105H7.29998779V7.40002441zm71.8000183 0H143.5V105H79.1000061V7.40002441zm423.1999817 0h-64.3999939V105h64.3999939V7.40002441zm71.7000122 0h-64.3999939V105H574V7.40002441zm-539.8999939 28H26.5V25.0999756h26.1000061V35.4000244H45v51.79992676H34.1000061V35.40002441zm72.2999878 51.79992676H95.6000061V25.0999756h11.20001221C117.8999939 25.09997559 126 31 126 44.9000244v.79992676C126 53.79992676 122.80001831 58.90002441 118.7000122 62L127 87.19995117h-11.5l-7-21.59997558h-2.1000061v21.59997558z"/>
        <path fill="rgb(213,0,50)" fill-rule="evenodd" d="M115.1000061 45.10009766v.69995117c0 7.30004883-3.40002441 10-8.2000122 10.09997558h-.5V35.30004883h.29998779c4.7000122 0 8.40002441 2 8.40002441 9.80004883zM179.5 65.19995117l3.3999939-20.5 3.3000183 20.5H179.5z"/>
        <path fill="rgb(213,0,50)" fill-rule="evenodd" d="M215.2999878 105h-64.3999939V7.40002441h64.3999939V105zm7.3000183 0H287V7.40002441h-64.3999939V105zm71.7999878 0h64.3999939V7.40002441h-64.3999939V105zm71.7000122 0H430.5V7.40002441h-64.3999939V105zM188.7999878 25h-11.5L165.5 87.30004883H176L178 75h9.7999878l2 12.30004883h10.8000183L188.7999878 25zM255 65.40002441L249.1000061 25h-11l11.1000061 62.30004883h11.1999817L271.5 25h-10.6000061L255 65.40002441zm83.3999939-40.30004882h-23.69999695v62.09997558h24V76.90002441H325.5V61.0999756h11.3999939V50.79992676H325.5V35.4000244h12.8999939V25.0999756zm59.6000061 0h-10.8999939v62.09997558h22.2999878V76.90002441H398V25.0999756z"/>
      </g>
      <text font-size="0" style="white-space:pre">
        <tspan x="127.857" y="286" fill="rgb(69,65,66)" font-family="Gill Sans MT Condensed" font-size="99.66" font-weight="400" style="white-space:pre;text-transform:uppercase" letter-spacing="4">Wide Bay</tspan>
      </text>
    </g>
  </g>
</svg>
