<svg xmlns="http://www.w3.org/2000/svg" width="180" height="30" viewBox="0 0 180 30" fill="none"><path d="M125.128 8.73959C122.138 8.73959 119.668 10.4628 118.567 12.1237C117.779 9.88146 115.889 8.73959 113.19 8.73959C110.388 8.73959 108.083 10.2136 107.128 11.314C106.713 10.4628 106.069 9.81918 105.28 9.38319C104.388 8.86416 103.246 8.59426 101.938 8.59426C101.211 8.59426 100.526 8.69807 99.8616 8.88492C97.5363 9.32091 95.647 10.7534 94.7335 12.1237C93.9446 9.88146 92.0553 8.73959 89.3564 8.73959C86.3667 8.73959 83.9377 10.4213 83.1072 11.5216V9.2171H77.0657V28.1721H83.1072V15.923C83.7301 15.1341 84.8719 14.0752 86.4913 14.0752C88.3391 14.0752 89.0034 15.1756 89.0034 16.6289V28.1721H95.0449V15.923C95.4809 15.3417 96.2491 14.615 97.2872 14.2621C97.4948 14.1998 97.7024 14.1583 97.91 14.1168C98.0969 14.096 98.2837 14.0752 98.4706 14.0752C99.9238 14.0752 100.65 14.7811 100.9 15.8192V28.1721H100.983H106.941H106.983V15.8815C107.626 15.1133 108.747 14.096 110.304 14.096C112.152 14.096 112.817 15.1963 112.817 16.6496V28.1929H118.858V15.9437C119.439 15.1548 120.623 14.096 122.284 14.096C124.09 14.096 124.796 15.1963 124.796 16.6496V28.1929H130.796V14.4282C130.817 10.5458 128.616 8.73959 125.128 8.73959ZM69.4048 28.1721H75.4463V9.2171H69.4048V21.4662C68.6989 22.3797 67.5155 23.314 65.7924 23.314C63.82 23.314 62.6574 22.5251 62.6574 20.2413V9.2171H56.6159V22.7327C56.6159 26.2206 58.5467 28.6704 62.865 28.6704C66.0415 28.6704 68.2422 27.2586 69.4256 25.9299V28.1721H69.4048ZM49.1626 17.1479C49.1626 14.8226 47.9377 14.0752 46.0277 14.0752C44.2629 14.0752 43.0796 15.051 42.3737 15.923V28.1721H36.3322V1.99219H42.3737V11.5424C43.5155 10.2136 45.7578 8.76035 48.9342 8.76035C53.2526 8.76035 55.2249 11.1894 55.2249 14.6981V28.2136H49.1834V17.1479H49.1626Z" fill="#003777"></path><path fill-rule="evenodd" clip-rule="evenodd" d="M15.6747 14.013C15.4671 14.2206 15.4671 14.5527 15.6747 14.7604C15.7785 14.8434 15.9031 14.9057 16.0277 14.9057C16.173 14.9057 16.2976 14.8642 16.4014 14.7604L29.5017 1.63925C33.8616 6.60119 33.6747 14.1168 28.9619 18.8503V28.1306H15.5917H15.3633C7.84775 28.1306 1.74394 22.0268 1.74394 14.5112C1.74394 13.3486 1.88927 12.2067 2.15917 11.1271C2.4083 9.63233 1.22491 7.26555 0 5.68769C1.97232 5.91607 4.83737 5.74998 5.7301 4.85724C8.20069 2.40742 11.6055 0.891846 15.3426 0.891846C18.9343 0.891846 22.1938 2.28285 24.6228 4.54583L24.8305 4.85724L15.6747 14.013ZM9.67476 9.23787C10.7336 9.23787 11.5848 8.38666 11.5848 7.32784C11.5848 6.26901 10.7128 5.39704 9.65399 5.39704C9.30105 5.39704 8.96887 5.50085 8.67822 5.66694H8.71974C9.30105 5.66694 9.7578 6.12369 9.7578 6.705C9.7578 7.28632 9.30105 7.74306 8.71974 7.74306C8.28375 7.74306 7.91005 7.47317 7.76472 7.09946V7.14099V7.28632C7.76472 7.55621 7.80624 7.82611 7.91005 8.07524C8.20071 8.76036 8.88583 9.23787 9.67476 9.23787Z" fill="#003777"></path><path d="M178.609 15.5701C178.609 21.1341 176.637 28.0268 170.512 28.0268C164.346 28.0268 162.374 21.1548 162.374 15.5701C162.374 9.96453 164.346 3.15484 170.512 3.15484C176.678 3.15484 178.609 9.94377 178.609 15.5701ZM160.983 15.5701C160.983 21.6531 163.474 29.2102 170.512 29.2102C177.529 29.2102 180 21.6531 180 15.5701C180 9.4455 177.509 1.97145 170.512 1.97145C163.474 1.97145 160.983 9.4455 160.983 15.5701ZM157.495 12.1237C155.896 15.0926 152.761 17.2725 149.564 17.2725C145.349 17.2725 142.36 14.9472 142.36 10.1514C142.36 7.0372 144.685 3.11332 149.689 3.11332C155.107 3.11332 157.142 8.22059 157.495 12.1237ZM142.443 25.5978C143.917 27.6946 145.889 29.1479 149.46 29.1479C156.623 29.1479 158.99 21.9438 158.99 15.5493C158.99 8.61505 156.623 1.92993 149.689 1.92993C144.083 1.92993 141.073 6.1237 141.073 10.1514C141.073 15.7569 144.727 18.4559 149.522 18.4559C153.363 18.4559 156.581 15.5701 157.661 13.7431C157.702 14.2206 157.702 14.6981 157.702 15.1756C157.702 21.2171 155.73 27.9853 149.46 27.9853C146.346 27.9853 144.685 26.5943 143.419 24.7881L142.443 25.5978Z" fill="#003777"></path><path d="M136.09 11.5217C136.567 11.5217 136.879 11.8124 136.879 12.2691C136.879 12.7051 136.567 12.9958 136.09 12.9958H134.99V11.5217H136.09ZM136.796 15.2587H137.606L136.443 13.5563C136.692 13.5563 137.543 13.2449 137.543 12.2899C137.543 11.501 136.92 10.9819 136.069 10.9819H134.305V15.2587H134.969V13.5771H135.675L136.796 15.2587ZM135.779 9.98539C137.523 9.98539 138.934 11.3556 138.934 13.0996C138.934 14.802 137.523 16.2138 135.779 16.2138C134.035 16.2138 132.623 14.802 132.623 13.0996C132.623 11.3764 134.035 9.98539 135.779 9.98539ZM135.779 16.8366C137.875 16.8366 139.557 15.1549 139.557 13.0996C139.557 11.0234 137.875 9.36255 135.779 9.36255C133.682 9.36255 132 11.0234 132 13.0996C132 15.1757 133.682 16.8366 135.779 16.8366Z" fill="#003777"></path></svg>